M48
METRIC,LZ,000.000
;FILE_FORMAT=3:3
;TYPE=PLATED
;Layer: PTH_Through
;EasyEDA v6.5.34, 2023-09-18 22:27:19
;bc2ed7582af3402095bcfb090b7e3d1d,4f913e99b9844981aeab8c69eabd27f9,10
;Gerber Generator version 0.2
;Holesize 1 = 0.305 mm
T01C0.305
;Holesize 2 = 0.310 mm
T02C0.310
;Holesize 3 = 0.701 mm
T03C0.701
;Holesize 4 = 0.889 mm
T04C0.889
;Holesize 5 = 0.915 mm
T05C0.915
%
G05
G90
T01
X016510Y-037719
X016510Y-035433
X050165Y-037592
X050165Y-035433
X022206Y-005588
X021336Y-021971
X015113Y-015621
X021336Y-024638
T02
X007366Y-028067
X027813Y-021971
X027813Y-024652
T03
X003302Y-030597
X003302Y-029347
X031740Y-034544
X030490Y-034544
T04
X003175Y-022098
X003175Y-019558
X036957Y-014732
X034417Y-014732
X031877Y-014732
X029337Y-014732
X044831Y-037211
X047371Y-037211
X011176Y-037338
X013716Y-037338
X010795Y-002921
X013335Y-002921
X046101Y-002921
X048641Y-002921
T05
X058293Y-011811
X055753Y-011811
X053213Y-011811
X050673Y-011811
X048133Y-011811
X045593Y-011811
X043053Y-011811
X040513Y-011811
X037973Y-011811
X035433Y-011811
X032893Y-011811
X030353Y-011811
X027813Y-011811
X025273Y-011811
X022733Y-011811
X020193Y-011811
X017653Y-011811
X015113Y-011811
X012573Y-011811
X010033Y-011811
X058293Y-029591
X055753Y-029591
X053213Y-029591
X050673Y-029591
X048133Y-029591
X045593Y-029591
X043053Y-029591
X040513Y-029591
X037973Y-029591
X035433Y-029591
X032893Y-029591
X030353Y-029591
X027813Y-029591
X025273Y-029591
X022733Y-029591
X020193Y-029591
X017653Y-029591
X015113Y-029591
X012573Y-029591
X010033Y-029591
X039863Y-017577
X039863Y-015037
X039863Y-020117
M30
