G04 Layer: TopSolderMaskLayer*
G04 EasyEDA v6.5.34, 2023-09-18 22:27:19*
G04 bc2ed7582af3402095bcfb090b7e3d1d,4f913e99b9844981aeab8c69eabd27f9,10*
G04 Gerber Generator version 0.2*
G04 Scale: 100 percent, Rotated: No, Reflected: No *
G04 Dimensions in millimeters *
G04 leading zeros omitted , absolute positions ,4 integer and 5 decimal *
%FSLAX45Y45*%
%MOMM*%

%AMMACRO1*1,1,$1,$2,$3*1,1,$1,$4,$5*1,1,$1,0-$2,0-$3*1,1,$1,0-$4,0-$5*20,1,$1,$2,$3,$4,$5,0*20,1,$1,$4,$5,0-$2,0-$3,0*20,1,$1,0-$2,0-$3,0-$4,0-$5,0*20,1,$1,0-$4,0-$5,$2,$3,0*4,1,4,$2,$3,$4,$5,0-$2,0-$3,0-$4,0-$5,$2,$3,0*%
%ADD10MACRO1,0.1016X-0.7874X0.7874X0.7874X0.7874*%
%ADD11C,1.6764*%
%ADD12MACRO1,0.1016X0.7874X-0.7874X-0.7874X-0.7874*%
%ADD13MACRO1,0.1016X0.6X-0.475X-0.6X-0.475*%
%ADD14MACRO1,0.1016X0.7874X0.7874X0.7874X-0.7874*%
%ADD15MACRO1,0.1016X0.875X0.5X0.875X-0.5*%
%ADD16MACRO1,0.1016X0.35X0.625X0.35X-0.625*%
%ADD17MACRO1,0.1016X0.6038X0.8505X0.6038X-0.8505*%
%ADD18MACRO1,0.1016X-0.6038X0.8505X-0.6038X-0.8505*%
%ADD19MACRO1,0.1016X-0.6038X-0.8505X-0.6038X0.8505*%
%ADD20MACRO1,0.1016X0.6038X-0.8505X0.6038X0.8505*%
%ADD21MACRO1,0.1016X0.6885X-0.5663X-0.6885X-0.5663*%
%ADD22MACRO1,0.1016X0.6885X0.5663X-0.6885X0.5663*%
%ADD23C,1.7272*%
%ADD24C,1.6256*%
%ADD25MACRO1,0.1016X-0.762X0.762X0.762X0.762*%
%ADD26MACRO1,0.2032X-0.762X0.762X0.762X0.762*%
%ADD27MACRO1,0.1016X-0.6X0.475X0.6X0.475*%
%ADD28C,1.1516*%
%ADD29MACRO1,0.1016X0.525X0.525X0.525X-0.525*%
%ADD30MACRO1,0.1016X-0.525X0.525X0.525X0.525*%

%LPD*%
D10*
G01*
X317500Y-2209800D03*
D11*
G01*
X317500Y-1955800D03*
G01*
X3695700Y-1473200D03*
D12*
G01*
X3441700Y-1473200D03*
D11*
G01*
X3187700Y-1473200D03*
G01*
X2933700Y-1473200D03*
D13*
G01*
X2420797Y-355600D03*
G01*
X2760802Y-355600D03*
D11*
G01*
X4483100Y-3721100D03*
D14*
G01*
X4737100Y-3721100D03*
D11*
G01*
X1117600Y-3733800D03*
D14*
G01*
X1371600Y-3733800D03*
D11*
G01*
X1079500Y-292100D03*
D14*
G01*
X1333500Y-292100D03*
D11*
G01*
X4610100Y-292100D03*
D14*
G01*
X4864100Y-292100D03*
D15*
G01*
X3422500Y-571500D03*
G01*
X4197499Y-571500D03*
D16*
G01*
X5137403Y-3846499D03*
G01*
X5327394Y-3846499D03*
G01*
X5232398Y-3646500D03*
G01*
X1810003Y-3846499D03*
G01*
X1999994Y-3846499D03*
G01*
X1904998Y-3646500D03*
G01*
X1771903Y-379399D03*
G01*
X1961894Y-379399D03*
G01*
X1866898Y-179400D03*
G01*
X5226303Y-417499D03*
G01*
X5416294Y-417499D03*
G01*
X5321298Y-217500D03*
D17*
G01*
X5071823Y-3378200D03*
D18*
G01*
X5367576Y-3378200D03*
D17*
G01*
X1744423Y-3378200D03*
D18*
G01*
X2040176Y-3378200D03*
D17*
G01*
X1744423Y-749300D03*
D18*
G01*
X2040176Y-749300D03*
D17*
G01*
X5186123Y-762000D03*
D18*
G01*
X5481876Y-762000D03*
D19*
G01*
X2878376Y-800100D03*
D20*
G01*
X2582623Y-800100D03*
D21*
G01*
X3162300Y-611195D03*
D22*
G01*
X3162300Y-811204D03*
D23*
G01*
X5829300Y-1181100D03*
D24*
G01*
X5575300Y-1181100D03*
D25*
G01*
X5321300Y-1181100D03*
D23*
G01*
X5067300Y-1181100D03*
D24*
G01*
X4813300Y-1181100D03*
G01*
X4559300Y-1181100D03*
G01*
X4305300Y-1181100D03*
D25*
G01*
X4051300Y-1181100D03*
D24*
G01*
X3797300Y-1181100D03*
D23*
G01*
X3543300Y-1181100D03*
D24*
G01*
X3289300Y-1181100D03*
D23*
G01*
X3035300Y-1181100D03*
D25*
G01*
X2781300Y-1181100D03*
D24*
G01*
X2527300Y-1181100D03*
G01*
X2273300Y-1181100D03*
G01*
X2019300Y-1181100D03*
D23*
G01*
X1765300Y-1181100D03*
D25*
G01*
X1511300Y-1181100D03*
D24*
G01*
X1257300Y-1181100D03*
G01*
X1003300Y-1181100D03*
D23*
G01*
X5829300Y-2959100D03*
G01*
X5575300Y-2959100D03*
D26*
G01*
X5321300Y-2959100D03*
D23*
G01*
X5067300Y-2959100D03*
G01*
X4813300Y-2959100D03*
G01*
X4559300Y-2959100D03*
G01*
X4305300Y-2959100D03*
D26*
G01*
X4051300Y-2959100D03*
D23*
G01*
X3797300Y-2959100D03*
G01*
X3543300Y-2959100D03*
G01*
X3289300Y-2959100D03*
G01*
X3035300Y-2959100D03*
D26*
G01*
X2781300Y-2959100D03*
D23*
G01*
X2527300Y-2959100D03*
G01*
X2273300Y-2959100D03*
G01*
X2019300Y-2959100D03*
G01*
X1765300Y-2959100D03*
D26*
G01*
X1511300Y-2959100D03*
D23*
G01*
X1257300Y-2959100D03*
G01*
X1003300Y-2959100D03*
G01*
X3986301Y-1757705D03*
G01*
X3986301Y-1503705D03*
D26*
G01*
X3986293Y-2011700D03*
D27*
G01*
X4754702Y-3378200D03*
G01*
X4414697Y-3378200D03*
G01*
X1401902Y-3365500D03*
G01*
X1061897Y-3365500D03*
G01*
X1452702Y-736600D03*
G01*
X1112697Y-736600D03*
G01*
X4919802Y-736600D03*
G01*
X4579797Y-736600D03*
D28*
G01*
X330200Y-3059709D03*
D29*
G01*
X330201Y-2934717D03*
D28*
G01*
X3173996Y-3454400D03*
D30*
G01*
X3049002Y-3454401D03*
M02*
