G04 Layer: TopSilkscreenLayer*
G04 EasyEDA v6.5.34, 2023-09-18 22:27:19*
G04 bc2ed7582af3402095bcfb090b7e3d1d,4f913e99b9844981aeab8c69eabd27f9,10*
G04 Gerber Generator version 0.2*
G04 Scale: 100 percent, Rotated: No, Reflected: No *
G04 Dimensions in millimeters *
G04 leading zeros omitted , absolute positions ,4 integer and 5 decimal *
%FSLAX45Y45*%
%MOMM*%

%ADD10C,0.2032*%
%ADD11C,0.1524*%
%ADD12C,0.2030*%
%ADD13C,0.2540*%
%ADD14C,0.1520*%
%ADD15C,0.0141*%

%LPD*%
D10*
X535939Y-571500D02*
G01*
X437387Y-571500D01*
X535939Y-571500D02*
G01*
X535939Y-604265D01*
X531368Y-618489D01*
X521970Y-627887D01*
X512571Y-632460D01*
X498347Y-637286D01*
X474979Y-637286D01*
X461010Y-632460D01*
X451612Y-627887D01*
X442213Y-618489D01*
X437387Y-604265D01*
X437387Y-571500D01*
X474979Y-668020D02*
G01*
X474979Y-724407D01*
X484378Y-724407D01*
X493776Y-719836D01*
X498347Y-715010D01*
X503173Y-705612D01*
X503173Y-691642D01*
X498347Y-682244D01*
X488950Y-672845D01*
X474979Y-668020D01*
X465581Y-668020D01*
X451612Y-672845D01*
X442213Y-682244D01*
X437387Y-691642D01*
X437387Y-705612D01*
X442213Y-715010D01*
X451612Y-724407D01*
X488950Y-806957D02*
G01*
X498347Y-802386D01*
X503173Y-788162D01*
X503173Y-774192D01*
X498347Y-759968D01*
X488950Y-755395D01*
X479552Y-759968D01*
X474979Y-769365D01*
X470154Y-792987D01*
X465581Y-802386D01*
X456184Y-806957D01*
X451612Y-806957D01*
X442213Y-802386D01*
X437387Y-788162D01*
X437387Y-774192D01*
X442213Y-759968D01*
X451612Y-755395D01*
X535939Y-837945D02*
G01*
X531368Y-842518D01*
X535939Y-847344D01*
X540512Y-842518D01*
X535939Y-837945D01*
X503173Y-842518D02*
G01*
X437387Y-842518D01*
X503173Y-934465D02*
G01*
X427989Y-934465D01*
X414020Y-929894D01*
X409194Y-925068D01*
X404621Y-915923D01*
X404621Y-901700D01*
X409194Y-892302D01*
X488950Y-934465D02*
G01*
X498347Y-925068D01*
X503173Y-915923D01*
X503173Y-901700D01*
X498347Y-892302D01*
X488950Y-882904D01*
X474979Y-878331D01*
X465581Y-878331D01*
X451612Y-882904D01*
X442213Y-892302D01*
X437387Y-901700D01*
X437387Y-915923D01*
X442213Y-925068D01*
X451612Y-934465D01*
X503173Y-965454D02*
G01*
X437387Y-965454D01*
X484378Y-965454D02*
G01*
X498347Y-979678D01*
X503173Y-989076D01*
X503173Y-1003045D01*
X498347Y-1012444D01*
X484378Y-1017015D01*
X437387Y-1017015D01*
X474979Y-1048004D02*
G01*
X474979Y-1104392D01*
X484378Y-1104392D01*
X493776Y-1099820D01*
X498347Y-1094994D01*
X503173Y-1085595D01*
X503173Y-1071626D01*
X498347Y-1062228D01*
X488950Y-1052829D01*
X474979Y-1048004D01*
X465581Y-1048004D01*
X451612Y-1052829D01*
X442213Y-1062228D01*
X437387Y-1071626D01*
X437387Y-1085595D01*
X442213Y-1094994D01*
X451612Y-1104392D01*
X535939Y-1191513D02*
G01*
X437387Y-1191513D01*
X488950Y-1191513D02*
G01*
X498347Y-1182370D01*
X503173Y-1172971D01*
X503173Y-1158747D01*
X498347Y-1149350D01*
X488950Y-1139952D01*
X474979Y-1135379D01*
X465581Y-1135379D01*
X451612Y-1139952D01*
X442213Y-1149350D01*
X437387Y-1158747D01*
X437387Y-1172971D01*
X442213Y-1182370D01*
X451612Y-1191513D01*
X535939Y-1294892D02*
G01*
X437387Y-1294892D01*
X488950Y-1294892D02*
G01*
X498347Y-1304289D01*
X503173Y-1313687D01*
X503173Y-1327657D01*
X498347Y-1337055D01*
X488950Y-1346454D01*
X474979Y-1351026D01*
X465581Y-1351026D01*
X451612Y-1346454D01*
X442213Y-1337055D01*
X437387Y-1327657D01*
X437387Y-1313687D01*
X442213Y-1304289D01*
X451612Y-1294892D01*
X503173Y-1386839D02*
G01*
X437387Y-1415034D01*
X503173Y-1442973D02*
G01*
X437387Y-1415034D01*
X418592Y-1405636D01*
X409194Y-1396237D01*
X404621Y-1386839D01*
X404621Y-1382013D01*
X320039Y-609092D02*
G01*
X221487Y-571500D01*
X320039Y-609092D02*
G01*
X221487Y-646429D01*
X254254Y-585470D02*
G01*
X254254Y-632460D01*
X287273Y-677418D02*
G01*
X221487Y-677418D01*
X268478Y-677418D02*
G01*
X282447Y-691642D01*
X287273Y-701039D01*
X287273Y-715010D01*
X282447Y-724407D01*
X268478Y-729234D01*
X221487Y-729234D01*
X320039Y-759968D02*
G01*
X315468Y-764794D01*
X320039Y-769365D01*
X324612Y-764794D01*
X320039Y-759968D01*
X287273Y-764794D02*
G01*
X221487Y-764794D01*
X273050Y-851915D02*
G01*
X282447Y-847344D01*
X287273Y-833373D01*
X287273Y-819150D01*
X282447Y-805179D01*
X273050Y-800354D01*
X263652Y-805179D01*
X259079Y-814578D01*
X254254Y-837945D01*
X249681Y-847344D01*
X240284Y-851915D01*
X235712Y-851915D01*
X226313Y-847344D01*
X221487Y-833373D01*
X221487Y-819150D01*
X226313Y-805179D01*
X235712Y-800354D01*
X320039Y-882904D02*
G01*
X221487Y-882904D01*
X268478Y-882904D02*
G01*
X282447Y-897128D01*
X287273Y-906526D01*
X287273Y-920495D01*
X282447Y-929894D01*
X268478Y-934465D01*
X221487Y-934465D01*
X320039Y-1037844D02*
G01*
X221487Y-1037844D01*
X320039Y-1037844D02*
G01*
X221487Y-1103376D01*
X320039Y-1103376D02*
G01*
X221487Y-1103376D01*
X287273Y-1190752D02*
G01*
X221487Y-1190752D01*
X273050Y-1190752D02*
G01*
X282447Y-1181354D01*
X287273Y-1171955D01*
X287273Y-1157986D01*
X282447Y-1148587D01*
X273050Y-1139189D01*
X259079Y-1134363D01*
X249681Y-1134363D01*
X235712Y-1139189D01*
X226313Y-1148587D01*
X221487Y-1157986D01*
X221487Y-1171955D01*
X226313Y-1181354D01*
X235712Y-1190752D01*
X320039Y-1235710D02*
G01*
X240284Y-1235710D01*
X226313Y-1240536D01*
X221487Y-1249679D01*
X221487Y-1259078D01*
X287273Y-1221739D02*
G01*
X287273Y-1254505D01*
X259079Y-1290065D02*
G01*
X259079Y-1346454D01*
X268478Y-1346454D01*
X277876Y-1341628D01*
X282447Y-1337055D01*
X287273Y-1327657D01*
X287273Y-1313687D01*
X282447Y-1304289D01*
X273050Y-1294892D01*
X259079Y-1290065D01*
X249681Y-1290065D01*
X235712Y-1294892D01*
X226313Y-1304289D01*
X221487Y-1313687D01*
X221487Y-1327657D01*
X226313Y-1337055D01*
X235712Y-1346454D01*
X320039Y-1377442D02*
G01*
X221487Y-1377442D01*
X287273Y-1424431D02*
G01*
X240284Y-1377442D01*
X259079Y-1396237D02*
G01*
X221487Y-1429004D01*
X287273Y-1516126D02*
G01*
X221487Y-1516126D01*
X273050Y-1516126D02*
G01*
X282447Y-1506981D01*
X287273Y-1497584D01*
X287273Y-1483360D01*
X282447Y-1473962D01*
X273050Y-1464563D01*
X259079Y-1459992D01*
X249681Y-1459992D01*
X235712Y-1464563D01*
X226313Y-1473962D01*
X221487Y-1483360D01*
X221487Y-1497584D01*
X226313Y-1506981D01*
X235712Y-1516126D01*
X287273Y-1547113D02*
G01*
X221487Y-1547113D01*
X259079Y-1547113D02*
G01*
X273050Y-1551939D01*
X282447Y-1561337D01*
X287273Y-1570736D01*
X287273Y-1584705D01*
X2565400Y-3756660D02*
G01*
X2565400Y-3855212D01*
X2565400Y-3756660D02*
G01*
X2607563Y-3756660D01*
X2621788Y-3761231D01*
X2626359Y-3766057D01*
X2631186Y-3775455D01*
X2631186Y-3789426D01*
X2626359Y-3798823D01*
X2621788Y-3803650D01*
X2607563Y-3808221D01*
X2565400Y-3808221D01*
X2661920Y-3756660D02*
G01*
X2666745Y-3761231D01*
X2671318Y-3756660D01*
X2666745Y-3752087D01*
X2661920Y-3756660D01*
X2666745Y-3789426D02*
G01*
X2666745Y-3855212D01*
X2758693Y-3803650D02*
G01*
X2749295Y-3794252D01*
X2739897Y-3789426D01*
X2725927Y-3789426D01*
X2716529Y-3794252D01*
X2707131Y-3803650D01*
X2702306Y-3817620D01*
X2702306Y-3827018D01*
X2707131Y-3840987D01*
X2716529Y-3850386D01*
X2725927Y-3855212D01*
X2739897Y-3855212D01*
X2749295Y-3850386D01*
X2758693Y-3840987D01*
X2813050Y-3789426D02*
G01*
X2803652Y-3794252D01*
X2794254Y-3803650D01*
X2789681Y-3817620D01*
X2789681Y-3827018D01*
X2794254Y-3840987D01*
X2803652Y-3850386D01*
X2813050Y-3855212D01*
X2827274Y-3855212D01*
X2836418Y-3850386D01*
X2845815Y-3840987D01*
X2850641Y-3827018D01*
X2850641Y-3817620D01*
X2845815Y-3803650D01*
X2836418Y-3794252D01*
X2827274Y-3789426D01*
X2813050Y-3789426D01*
X2881629Y-3756660D02*
G01*
X2904997Y-3855212D01*
X2928365Y-3756660D02*
G01*
X2904997Y-3855212D01*
X2928365Y-3756660D02*
G01*
X2951988Y-3855212D01*
X2975356Y-3756660D02*
G01*
X2951988Y-3855212D01*
X3006343Y-3887978D02*
G01*
X3090672Y-3887978D01*
X3192018Y-3780028D02*
G01*
X3187445Y-3770629D01*
X3178047Y-3761231D01*
X3168650Y-3756660D01*
X3149854Y-3756660D01*
X3140456Y-3761231D01*
X3131058Y-3770629D01*
X3126486Y-3780028D01*
X3121659Y-3794252D01*
X3121659Y-3817620D01*
X3126486Y-3831589D01*
X3131058Y-3840987D01*
X3140456Y-3850386D01*
X3149854Y-3855212D01*
X3168650Y-3855212D01*
X3178047Y-3850386D01*
X3187445Y-3840987D01*
X3192018Y-3831589D01*
X3246627Y-3789426D02*
G01*
X3237229Y-3794252D01*
X3227831Y-3803650D01*
X3223006Y-3817620D01*
X3223006Y-3827018D01*
X3227831Y-3840987D01*
X3237229Y-3850386D01*
X3246627Y-3855212D01*
X3260597Y-3855212D01*
X3269995Y-3850386D01*
X3279393Y-3840987D01*
X3283965Y-3827018D01*
X3283965Y-3817620D01*
X3279393Y-3803650D01*
X3269995Y-3794252D01*
X3260597Y-3789426D01*
X3246627Y-3789426D01*
X3314954Y-3789426D02*
G01*
X3314954Y-3887978D01*
X3314954Y-3803650D02*
G01*
X3324352Y-3794252D01*
X3333750Y-3789426D01*
X3347720Y-3789426D01*
X3357118Y-3794252D01*
X3366515Y-3803650D01*
X3371341Y-3817620D01*
X3371341Y-3827018D01*
X3366515Y-3840987D01*
X3357118Y-3850386D01*
X3347720Y-3855212D01*
X3333750Y-3855212D01*
X3324352Y-3850386D01*
X3314954Y-3840987D01*
X3416300Y-3756660D02*
G01*
X3416300Y-3836415D01*
X3421125Y-3850386D01*
X3430524Y-3855212D01*
X3439668Y-3855212D01*
X3402329Y-3789426D02*
G01*
X3435095Y-3789426D01*
X3470656Y-3817620D02*
G01*
X3527043Y-3817620D01*
X3527043Y-3808221D01*
X3522218Y-3798823D01*
X3517645Y-3794252D01*
X3508247Y-3789426D01*
X3494277Y-3789426D01*
X3484879Y-3794252D01*
X3475481Y-3803650D01*
X3470656Y-3817620D01*
X3470656Y-3827018D01*
X3475481Y-3840987D01*
X3484879Y-3850386D01*
X3494277Y-3855212D01*
X3508247Y-3855212D01*
X3517645Y-3850386D01*
X3527043Y-3840987D01*
X3558031Y-3789426D02*
G01*
X3558031Y-3855212D01*
X3558031Y-3817620D02*
G01*
X3562604Y-3803650D01*
X3572002Y-3794252D01*
X3581400Y-3789426D01*
X3595624Y-3789426D01*
D11*
X2221484Y-495300D02*
G01*
X2299461Y-495300D01*
X2314956Y-490220D01*
X2325370Y-479805D01*
X2330450Y-464057D01*
X2330450Y-453644D01*
X2325370Y-438150D01*
X2314956Y-427736D01*
X2299461Y-422655D01*
X2221484Y-422655D01*
X2221484Y-388365D02*
G01*
X2330450Y-388365D01*
X2221484Y-388365D02*
G01*
X2330450Y-346710D01*
X2221484Y-305054D02*
G01*
X2330450Y-346710D01*
X2221484Y-305054D02*
G01*
X2330450Y-305054D01*
X2221484Y-208534D02*
G01*
X2221484Y-260350D01*
X2268220Y-265684D01*
X2263140Y-260350D01*
X2257806Y-244855D01*
X2257806Y-229362D01*
X2263140Y-213613D01*
X2273300Y-203200D01*
X2289047Y-198120D01*
X2299461Y-198120D01*
X2314956Y-203200D01*
X2325370Y-213613D01*
X2330450Y-229362D01*
X2330450Y-244855D01*
X2325370Y-260350D01*
X2320290Y-265684D01*
X2309875Y-270763D01*
X4292600Y-3747515D02*
G01*
X4292600Y-3638550D01*
X4292600Y-3747515D02*
G01*
X4250943Y-3638550D01*
X4209541Y-3747515D02*
G01*
X4250943Y-3638550D01*
X4209541Y-3747515D02*
G01*
X4209541Y-3638550D01*
X4144009Y-3747515D02*
G01*
X4154424Y-3742436D01*
X4164838Y-3732021D01*
X4169918Y-3721607D01*
X4175252Y-3705860D01*
X4175252Y-3679952D01*
X4169918Y-3664457D01*
X4164838Y-3654044D01*
X4154424Y-3643629D01*
X4144009Y-3638550D01*
X4123181Y-3638550D01*
X4112768Y-3643629D01*
X4102354Y-3654044D01*
X4097274Y-3664457D01*
X4091940Y-3679952D01*
X4091940Y-3705860D01*
X4097274Y-3721607D01*
X4102354Y-3732021D01*
X4112768Y-3742436D01*
X4123181Y-3747515D01*
X4144009Y-3747515D01*
X4021327Y-3747515D02*
G01*
X4021327Y-3638550D01*
X4057650Y-3747515D02*
G01*
X3985006Y-3747515D01*
X3919474Y-3747515D02*
G01*
X3929888Y-3742436D01*
X3940302Y-3732021D01*
X3945636Y-3721607D01*
X3950715Y-3705860D01*
X3950715Y-3679952D01*
X3945636Y-3664457D01*
X3940302Y-3654044D01*
X3929888Y-3643629D01*
X3919474Y-3638550D01*
X3898900Y-3638550D01*
X3888486Y-3643629D01*
X3878072Y-3654044D01*
X3872738Y-3664457D01*
X3867658Y-3679952D01*
X3867658Y-3705860D01*
X3872738Y-3721607D01*
X3878072Y-3732021D01*
X3888486Y-3742436D01*
X3898900Y-3747515D01*
X3919474Y-3747515D01*
X3833368Y-3747515D02*
G01*
X3833368Y-3638550D01*
X3833368Y-3747515D02*
G01*
X3786631Y-3747515D01*
X3770884Y-3742436D01*
X3765804Y-3737102D01*
X3760470Y-3726687D01*
X3760470Y-3716273D01*
X3765804Y-3705860D01*
X3770884Y-3700779D01*
X3786631Y-3695700D01*
X3833368Y-3695700D01*
X3797045Y-3695700D02*
G01*
X3760470Y-3638550D01*
X3726179Y-3726687D02*
G01*
X3716020Y-3732021D01*
X3700272Y-3747515D01*
X3700272Y-3638550D01*
X939800Y-3772915D02*
G01*
X939800Y-3663950D01*
X939800Y-3772915D02*
G01*
X898144Y-3663950D01*
X856742Y-3772915D02*
G01*
X898144Y-3663950D01*
X856742Y-3772915D02*
G01*
X856742Y-3663950D01*
X791210Y-3772915D02*
G01*
X801623Y-3767836D01*
X812037Y-3757421D01*
X817118Y-3747007D01*
X822452Y-3731260D01*
X822452Y-3705352D01*
X817118Y-3689857D01*
X812037Y-3679444D01*
X801623Y-3669029D01*
X791210Y-3663950D01*
X770381Y-3663950D01*
X759968Y-3669029D01*
X749554Y-3679444D01*
X744473Y-3689857D01*
X739139Y-3705352D01*
X739139Y-3731260D01*
X744473Y-3747007D01*
X749554Y-3757421D01*
X759968Y-3767836D01*
X770381Y-3772915D01*
X791210Y-3772915D01*
X668528Y-3772915D02*
G01*
X668528Y-3663950D01*
X704850Y-3772915D02*
G01*
X632205Y-3772915D01*
X566673Y-3772915D02*
G01*
X577087Y-3767836D01*
X587502Y-3757421D01*
X592836Y-3747007D01*
X597915Y-3731260D01*
X597915Y-3705352D01*
X592836Y-3689857D01*
X587502Y-3679444D01*
X577087Y-3669029D01*
X566673Y-3663950D01*
X546100Y-3663950D01*
X535686Y-3669029D01*
X525271Y-3679444D01*
X519937Y-3689857D01*
X514857Y-3705352D01*
X514857Y-3731260D01*
X519937Y-3747007D01*
X525271Y-3757421D01*
X535686Y-3767836D01*
X546100Y-3772915D01*
X566673Y-3772915D01*
X480568Y-3772915D02*
G01*
X480568Y-3663950D01*
X480568Y-3772915D02*
G01*
X433831Y-3772915D01*
X418084Y-3767836D01*
X413004Y-3762502D01*
X407670Y-3752087D01*
X407670Y-3741673D01*
X413004Y-3731260D01*
X418084Y-3726179D01*
X433831Y-3721100D01*
X480568Y-3721100D01*
X444245Y-3721100D02*
G01*
X407670Y-3663950D01*
X368300Y-3747007D02*
G01*
X368300Y-3752087D01*
X363220Y-3762502D01*
X357886Y-3767836D01*
X347471Y-3772915D01*
X326644Y-3772915D01*
X316229Y-3767836D01*
X311150Y-3762502D01*
X306070Y-3752087D01*
X306070Y-3741673D01*
X311150Y-3731260D01*
X321563Y-3715765D01*
X373379Y-3663950D01*
X300736Y-3663950D01*
X266700Y-240284D02*
G01*
X266700Y-349250D01*
X266700Y-240284D02*
G01*
X308355Y-349250D01*
X349757Y-240284D02*
G01*
X308355Y-349250D01*
X349757Y-240284D02*
G01*
X349757Y-349250D01*
X415289Y-240284D02*
G01*
X404876Y-245363D01*
X394462Y-255778D01*
X389381Y-266192D01*
X384047Y-281939D01*
X384047Y-307847D01*
X389381Y-323342D01*
X394462Y-333755D01*
X404876Y-344170D01*
X415289Y-349250D01*
X436118Y-349250D01*
X446531Y-344170D01*
X456945Y-333755D01*
X462026Y-323342D01*
X467360Y-307847D01*
X467360Y-281939D01*
X462026Y-266192D01*
X456945Y-255778D01*
X446531Y-245363D01*
X436118Y-240284D01*
X415289Y-240284D01*
X537971Y-240284D02*
G01*
X537971Y-349250D01*
X501650Y-240284D02*
G01*
X574294Y-240284D01*
X639826Y-240284D02*
G01*
X629412Y-245363D01*
X618997Y-255778D01*
X613663Y-266192D01*
X608584Y-281939D01*
X608584Y-307847D01*
X613663Y-323342D01*
X618997Y-333755D01*
X629412Y-344170D01*
X639826Y-349250D01*
X660400Y-349250D01*
X670813Y-344170D01*
X681228Y-333755D01*
X686562Y-323342D01*
X691642Y-307847D01*
X691642Y-281939D01*
X686562Y-266192D01*
X681228Y-255778D01*
X670813Y-245363D01*
X660400Y-240284D01*
X639826Y-240284D01*
X725931Y-240284D02*
G01*
X725931Y-349250D01*
X725931Y-240284D02*
G01*
X772668Y-240284D01*
X788415Y-245363D01*
X793495Y-250697D01*
X798829Y-261112D01*
X798829Y-271526D01*
X793495Y-281939D01*
X788415Y-287020D01*
X772668Y-292100D01*
X725931Y-292100D01*
X762254Y-292100D02*
G01*
X798829Y-349250D01*
X843279Y-240284D02*
G01*
X900429Y-240284D01*
X869442Y-281939D01*
X884936Y-281939D01*
X895350Y-287020D01*
X900429Y-292100D01*
X905763Y-307847D01*
X905763Y-318262D01*
X900429Y-333755D01*
X890270Y-344170D01*
X874521Y-349250D01*
X859028Y-349250D01*
X843279Y-344170D01*
X838200Y-339089D01*
X833120Y-328676D01*
X3810000Y-202184D02*
G01*
X3810000Y-311150D01*
X3810000Y-202184D02*
G01*
X3851656Y-311150D01*
X3893058Y-202184D02*
G01*
X3851656Y-311150D01*
X3893058Y-202184D02*
G01*
X3893058Y-311150D01*
X3958590Y-202184D02*
G01*
X3948175Y-207263D01*
X3937761Y-217678D01*
X3932681Y-228092D01*
X3927347Y-243839D01*
X3927347Y-269747D01*
X3932681Y-285242D01*
X3937761Y-295655D01*
X3948175Y-306070D01*
X3958590Y-311150D01*
X3979418Y-311150D01*
X3989831Y-306070D01*
X4000245Y-295655D01*
X4005325Y-285242D01*
X4010659Y-269747D01*
X4010659Y-243839D01*
X4005325Y-228092D01*
X4000245Y-217678D01*
X3989831Y-207263D01*
X3979418Y-202184D01*
X3958590Y-202184D01*
X4081272Y-202184D02*
G01*
X4081272Y-311150D01*
X4044950Y-202184D02*
G01*
X4117593Y-202184D01*
X4183125Y-202184D02*
G01*
X4172711Y-207263D01*
X4162297Y-217678D01*
X4156963Y-228092D01*
X4151884Y-243839D01*
X4151884Y-269747D01*
X4156963Y-285242D01*
X4162297Y-295655D01*
X4172711Y-306070D01*
X4183125Y-311150D01*
X4203700Y-311150D01*
X4214113Y-306070D01*
X4224527Y-295655D01*
X4229861Y-285242D01*
X4234941Y-269747D01*
X4234941Y-243839D01*
X4229861Y-228092D01*
X4224527Y-217678D01*
X4214113Y-207263D01*
X4203700Y-202184D01*
X4183125Y-202184D01*
X4269231Y-202184D02*
G01*
X4269231Y-311150D01*
X4269231Y-202184D02*
G01*
X4315968Y-202184D01*
X4331715Y-207263D01*
X4336795Y-212597D01*
X4342129Y-223012D01*
X4342129Y-233426D01*
X4336795Y-243839D01*
X4331715Y-248920D01*
X4315968Y-254000D01*
X4269231Y-254000D01*
X4305554Y-254000D02*
G01*
X4342129Y-311150D01*
X4428236Y-202184D02*
G01*
X4376420Y-274828D01*
X4454143Y-274828D01*
X4428236Y-202184D02*
G01*
X4428236Y-311150D01*
X3975100Y-915415D02*
G01*
X3975100Y-806450D01*
X3902456Y-915415D02*
G01*
X3975100Y-842771D01*
X3949191Y-868679D02*
G01*
X3902456Y-806450D01*
X3868165Y-915415D02*
G01*
X3868165Y-806450D01*
X3868165Y-915415D02*
G01*
X3800602Y-915415D01*
X3868165Y-863600D02*
G01*
X3826509Y-863600D01*
X3868165Y-806450D02*
G01*
X3800602Y-806450D01*
X3766311Y-915415D02*
G01*
X3724656Y-863600D01*
X3724656Y-806450D01*
X3683000Y-915415D02*
G01*
X3724656Y-863600D01*
X3648709Y-894587D02*
G01*
X3638550Y-899921D01*
X3622802Y-915415D01*
X3622802Y-806450D01*
X5550915Y-3663442D02*
G01*
X5545836Y-3653028D01*
X5535422Y-3642613D01*
X5525008Y-3637279D01*
X5509259Y-3632200D01*
X5483352Y-3632200D01*
X5467858Y-3637279D01*
X5457443Y-3642613D01*
X5447029Y-3653028D01*
X5441950Y-3663442D01*
X5441950Y-3684270D01*
X5447029Y-3694429D01*
X5457443Y-3704844D01*
X5467858Y-3710178D01*
X5483352Y-3715257D01*
X5509259Y-3715257D01*
X5525008Y-3710178D01*
X5535422Y-3704844D01*
X5545836Y-3694429D01*
X5550915Y-3684270D01*
X5550915Y-3663442D01*
X5462524Y-3678936D02*
G01*
X5431536Y-3710178D01*
X5550915Y-3749547D02*
G01*
X5441950Y-3749547D01*
X5550915Y-3749547D02*
G01*
X5441950Y-3791204D01*
X5550915Y-3832860D02*
G01*
X5441950Y-3791204D01*
X5550915Y-3832860D02*
G01*
X5441950Y-3832860D01*
X5530088Y-3867150D02*
G01*
X5535422Y-3877310D01*
X5550915Y-3893057D01*
X5441950Y-3893057D01*
X2381758Y-3798315D02*
G01*
X2392172Y-3793236D01*
X2402586Y-3782821D01*
X2407920Y-3772407D01*
X2413000Y-3756660D01*
X2413000Y-3730752D01*
X2407920Y-3715257D01*
X2402586Y-3704844D01*
X2392172Y-3694429D01*
X2381758Y-3689350D01*
X2360929Y-3689350D01*
X2350770Y-3694429D01*
X2340356Y-3704844D01*
X2335022Y-3715257D01*
X2329941Y-3730752D01*
X2329941Y-3756660D01*
X2335022Y-3772407D01*
X2340356Y-3782821D01*
X2350770Y-3793236D01*
X2360929Y-3798315D01*
X2381758Y-3798315D01*
X2366263Y-3709923D02*
G01*
X2335022Y-3678936D01*
X2295652Y-3798315D02*
G01*
X2295652Y-3689350D01*
X2295652Y-3798315D02*
G01*
X2253995Y-3689350D01*
X2212340Y-3798315D02*
G01*
X2253995Y-3689350D01*
X2212340Y-3798315D02*
G01*
X2212340Y-3689350D01*
X2172970Y-3772407D02*
G01*
X2172970Y-3777487D01*
X2167890Y-3787902D01*
X2162556Y-3793236D01*
X2152141Y-3798315D01*
X2131313Y-3798315D01*
X2120900Y-3793236D01*
X2115820Y-3787902D01*
X2110740Y-3777487D01*
X2110740Y-3767073D01*
X2115820Y-3756660D01*
X2126234Y-3741165D01*
X2178050Y-3689350D01*
X2105406Y-3689350D01*
X2185415Y-196342D02*
G01*
X2180336Y-185928D01*
X2169922Y-175513D01*
X2159508Y-170179D01*
X2143759Y-165100D01*
X2117852Y-165100D01*
X2102358Y-170179D01*
X2091943Y-175513D01*
X2081529Y-185928D01*
X2076450Y-196342D01*
X2076450Y-217170D01*
X2081529Y-227329D01*
X2091943Y-237744D01*
X2102358Y-243078D01*
X2117852Y-248157D01*
X2143759Y-248157D01*
X2159508Y-243078D01*
X2169922Y-237744D01*
X2180336Y-227329D01*
X2185415Y-217170D01*
X2185415Y-196342D01*
X2097024Y-211836D02*
G01*
X2066036Y-243078D01*
X2185415Y-282447D02*
G01*
X2076450Y-282447D01*
X2185415Y-282447D02*
G01*
X2076450Y-324104D01*
X2185415Y-365760D02*
G01*
X2076450Y-324104D01*
X2185415Y-365760D02*
G01*
X2076450Y-365760D01*
X2185415Y-410210D02*
G01*
X2185415Y-467360D01*
X2143759Y-436371D01*
X2143759Y-451865D01*
X2138679Y-462279D01*
X2133600Y-467360D01*
X2117852Y-472694D01*
X2107438Y-472694D01*
X2091943Y-467360D01*
X2081529Y-457200D01*
X2076450Y-441452D01*
X2076450Y-425957D01*
X2081529Y-410210D01*
X2086609Y-405129D01*
X2097024Y-400050D01*
X5627115Y-209042D02*
G01*
X5622036Y-198628D01*
X5611622Y-188213D01*
X5601208Y-182879D01*
X5585459Y-177800D01*
X5559552Y-177800D01*
X5544058Y-182879D01*
X5533643Y-188213D01*
X5523229Y-198628D01*
X5518150Y-209042D01*
X5518150Y-229870D01*
X5523229Y-240029D01*
X5533643Y-250444D01*
X5544058Y-255778D01*
X5559552Y-260857D01*
X5585459Y-260857D01*
X5601208Y-255778D01*
X5611622Y-250444D01*
X5622036Y-240029D01*
X5627115Y-229870D01*
X5627115Y-209042D01*
X5538724Y-224536D02*
G01*
X5507736Y-255778D01*
X5627115Y-295147D02*
G01*
X5518150Y-295147D01*
X5627115Y-295147D02*
G01*
X5518150Y-336804D01*
X5627115Y-378460D02*
G01*
X5518150Y-336804D01*
X5627115Y-378460D02*
G01*
X5518150Y-378460D01*
X5627115Y-464565D02*
G01*
X5554472Y-412750D01*
X5554472Y-490473D01*
X5627115Y-464565D02*
G01*
X5518150Y-464565D01*
X5601715Y-3302000D02*
G01*
X5492750Y-3302000D01*
X5601715Y-3302000D02*
G01*
X5601715Y-3348736D01*
X5596636Y-3364229D01*
X5591302Y-3369563D01*
X5580888Y-3374644D01*
X5570474Y-3374644D01*
X5560059Y-3369563D01*
X5554979Y-3364229D01*
X5549900Y-3348736D01*
X5549900Y-3302000D01*
X5549900Y-3338321D02*
G01*
X5492750Y-3374644D01*
X5580888Y-3408934D02*
G01*
X5586222Y-3419347D01*
X5601715Y-3435095D01*
X5492750Y-3435095D01*
X2274315Y-3289300D02*
G01*
X2165350Y-3289300D01*
X2274315Y-3289300D02*
G01*
X2274315Y-3336036D01*
X2269236Y-3351529D01*
X2263902Y-3356863D01*
X2253488Y-3361944D01*
X2243074Y-3361944D01*
X2232659Y-3356863D01*
X2227579Y-3351529D01*
X2222500Y-3336036D01*
X2222500Y-3289300D01*
X2222500Y-3325621D02*
G01*
X2165350Y-3361944D01*
X2248408Y-3401568D02*
G01*
X2253488Y-3401568D01*
X2263902Y-3406647D01*
X2269236Y-3411981D01*
X2274315Y-3422395D01*
X2274315Y-3442970D01*
X2269236Y-3453384D01*
X2263902Y-3458718D01*
X2253488Y-3463797D01*
X2243074Y-3463797D01*
X2232659Y-3458718D01*
X2217165Y-3448304D01*
X2165350Y-3396234D01*
X2165350Y-3469131D01*
X2274315Y-673100D02*
G01*
X2165350Y-673100D01*
X2274315Y-673100D02*
G01*
X2274315Y-719836D01*
X2269236Y-735329D01*
X2263902Y-740663D01*
X2253488Y-745744D01*
X2243074Y-745744D01*
X2232659Y-740663D01*
X2227579Y-735329D01*
X2222500Y-719836D01*
X2222500Y-673100D01*
X2222500Y-709421D02*
G01*
X2165350Y-745744D01*
X2274315Y-790447D02*
G01*
X2274315Y-847597D01*
X2232659Y-816610D01*
X2232659Y-832104D01*
X2227579Y-842518D01*
X2222500Y-847597D01*
X2206752Y-852931D01*
X2196338Y-852931D01*
X2180843Y-847597D01*
X2170429Y-837184D01*
X2165350Y-821689D01*
X2165350Y-806195D01*
X2170429Y-790447D01*
X2175509Y-785368D01*
X2185924Y-780034D01*
X5716015Y-685800D02*
G01*
X5607050Y-685800D01*
X5716015Y-685800D02*
G01*
X5716015Y-732536D01*
X5710936Y-748029D01*
X5705602Y-753363D01*
X5695188Y-758444D01*
X5684774Y-758444D01*
X5674359Y-753363D01*
X5669279Y-748029D01*
X5664200Y-732536D01*
X5664200Y-685800D01*
X5664200Y-722121D02*
G01*
X5607050Y-758444D01*
X5716015Y-844804D02*
G01*
X5643372Y-792734D01*
X5643372Y-870712D01*
X5716015Y-844804D02*
G01*
X5607050Y-844804D01*
X2361184Y-889000D02*
G01*
X2470150Y-889000D01*
X2361184Y-889000D02*
G01*
X2361184Y-842263D01*
X2366263Y-826770D01*
X2371597Y-821436D01*
X2382011Y-816355D01*
X2392425Y-816355D01*
X2402840Y-821436D01*
X2407920Y-826770D01*
X2413000Y-842263D01*
X2413000Y-889000D01*
X2413000Y-852678D02*
G01*
X2470150Y-816355D01*
X2361184Y-719581D02*
G01*
X2361184Y-771652D01*
X2407920Y-776731D01*
X2402840Y-771652D01*
X2397506Y-755904D01*
X2397506Y-740410D01*
X2402840Y-724915D01*
X2413000Y-714502D01*
X2428747Y-709168D01*
X2439161Y-709168D01*
X2454656Y-714502D01*
X2465070Y-724915D01*
X2470150Y-740410D01*
X2470150Y-755904D01*
X2465070Y-771652D01*
X2459990Y-776731D01*
X2449575Y-782065D01*
X3073400Y-392684D02*
G01*
X3073400Y-501650D01*
X3073400Y-392684D02*
G01*
X3120136Y-392684D01*
X3135629Y-397763D01*
X3140963Y-403097D01*
X3146043Y-413512D01*
X3146043Y-423926D01*
X3140963Y-434339D01*
X3135629Y-439420D01*
X3120136Y-444500D01*
X3073400Y-444500D01*
X3109722Y-444500D02*
G01*
X3146043Y-501650D01*
X3242818Y-408178D02*
G01*
X3237484Y-397763D01*
X3221990Y-392684D01*
X3211575Y-392684D01*
X3196081Y-397763D01*
X3185668Y-413512D01*
X3180334Y-439420D01*
X3180334Y-465328D01*
X3185668Y-486155D01*
X3196081Y-496570D01*
X3211575Y-501650D01*
X3216909Y-501650D01*
X3232404Y-496570D01*
X3242818Y-486155D01*
X3247897Y-470662D01*
X3247897Y-465328D01*
X3242818Y-449834D01*
X3232404Y-439420D01*
X3216909Y-434339D01*
X3211575Y-434339D01*
X3196081Y-439420D01*
X3185668Y-449834D01*
X3180334Y-465328D01*
X1257300Y-1421384D02*
G01*
X1257300Y-1499362D01*
X1262379Y-1514855D01*
X1272794Y-1525270D01*
X1288542Y-1530350D01*
X1298955Y-1530350D01*
X1314450Y-1525270D01*
X1324863Y-1514855D01*
X1329944Y-1499362D01*
X1329944Y-1421384D01*
X1364234Y-1442212D02*
G01*
X1374647Y-1436878D01*
X1390395Y-1421384D01*
X1390395Y-1530350D01*
X4318000Y-3430015D02*
G01*
X4318000Y-3352037D01*
X4312920Y-3336544D01*
X4302506Y-3326129D01*
X4286758Y-3321050D01*
X4276343Y-3321050D01*
X4260850Y-3326129D01*
X4250436Y-3336544D01*
X4245356Y-3352037D01*
X4245356Y-3430015D01*
X4211065Y-3430015D02*
G01*
X4211065Y-3321050D01*
X4211065Y-3430015D02*
G01*
X4169409Y-3321050D01*
X4127754Y-3430015D02*
G01*
X4169409Y-3321050D01*
X4127754Y-3430015D02*
G01*
X4127754Y-3321050D01*
X4093463Y-3409187D02*
G01*
X4083050Y-3414521D01*
X4067556Y-3430015D01*
X4067556Y-3321050D01*
X939800Y-3417315D02*
G01*
X939800Y-3339337D01*
X934720Y-3323844D01*
X924305Y-3313429D01*
X908557Y-3308350D01*
X898144Y-3308350D01*
X882650Y-3313429D01*
X872236Y-3323844D01*
X867155Y-3339337D01*
X867155Y-3417315D01*
X832865Y-3417315D02*
G01*
X832865Y-3308350D01*
X832865Y-3417315D02*
G01*
X791210Y-3308350D01*
X749554Y-3417315D02*
G01*
X791210Y-3308350D01*
X749554Y-3417315D02*
G01*
X749554Y-3308350D01*
X710184Y-3391407D02*
G01*
X710184Y-3396487D01*
X704850Y-3406902D01*
X699770Y-3412236D01*
X689355Y-3417315D01*
X668528Y-3417315D01*
X658113Y-3412236D01*
X653034Y-3406902D01*
X647700Y-3396487D01*
X647700Y-3386073D01*
X653034Y-3375660D01*
X663447Y-3360165D01*
X715263Y-3308350D01*
X642620Y-3308350D01*
X711200Y-684784D02*
G01*
X711200Y-762762D01*
X716279Y-778255D01*
X726694Y-788670D01*
X742442Y-793750D01*
X752855Y-793750D01*
X768350Y-788670D01*
X778763Y-778255D01*
X783844Y-762762D01*
X783844Y-684784D01*
X818134Y-684784D02*
G01*
X818134Y-793750D01*
X818134Y-684784D02*
G01*
X859789Y-793750D01*
X901445Y-684784D02*
G01*
X859789Y-793750D01*
X901445Y-684784D02*
G01*
X901445Y-793750D01*
X946150Y-684784D02*
G01*
X1003300Y-684784D01*
X972057Y-726439D01*
X987552Y-726439D01*
X997965Y-731520D01*
X1003300Y-736600D01*
X1008379Y-752347D01*
X1008379Y-762762D01*
X1003300Y-778255D01*
X992886Y-788670D01*
X977137Y-793750D01*
X961644Y-793750D01*
X946150Y-788670D01*
X940815Y-783589D01*
X935736Y-773176D01*
X4380484Y-850900D02*
G01*
X4458461Y-850900D01*
X4473956Y-845820D01*
X4484370Y-835405D01*
X4489450Y-819657D01*
X4489450Y-809244D01*
X4484370Y-793750D01*
X4473956Y-783336D01*
X4458461Y-778255D01*
X4380484Y-778255D01*
X4380484Y-743965D02*
G01*
X4489450Y-743965D01*
X4380484Y-743965D02*
G01*
X4489450Y-702310D01*
X4380484Y-660654D02*
G01*
X4489450Y-702310D01*
X4380484Y-660654D02*
G01*
X4489450Y-660654D01*
X4380484Y-574547D02*
G01*
X4453127Y-626363D01*
X4453127Y-548639D01*
X4380484Y-574547D02*
G01*
X4489450Y-574547D01*
X229870Y-3262884D02*
G01*
X229870Y-3345942D01*
X224536Y-3361689D01*
X219455Y-3366770D01*
X209042Y-3371850D01*
X198628Y-3371850D01*
X188213Y-3366770D01*
X182879Y-3361689D01*
X177800Y-3345942D01*
X177800Y-3335528D01*
X264160Y-3262884D02*
G01*
X264160Y-3371850D01*
X264160Y-3262884D02*
G01*
X310895Y-3262884D01*
X326389Y-3267963D01*
X331470Y-3273297D01*
X336804Y-3283712D01*
X336804Y-3299205D01*
X331470Y-3309620D01*
X326389Y-3314700D01*
X310895Y-3320034D01*
X264160Y-3320034D01*
X371094Y-3283712D02*
G01*
X381507Y-3278378D01*
X397002Y-3262884D01*
X397002Y-3371850D01*
X3160585Y-3186684D02*
G01*
X3160585Y-3269742D01*
X3155251Y-3285489D01*
X3150171Y-3290570D01*
X3139757Y-3295650D01*
X3129343Y-3295650D01*
X3118929Y-3290570D01*
X3113595Y-3285489D01*
X3108515Y-3269742D01*
X3108515Y-3259328D01*
X3194875Y-3186684D02*
G01*
X3194875Y-3295650D01*
X3194875Y-3186684D02*
G01*
X3241611Y-3186684D01*
X3257105Y-3191763D01*
X3262185Y-3197097D01*
X3267519Y-3207512D01*
X3267519Y-3223005D01*
X3262185Y-3233420D01*
X3257105Y-3238500D01*
X3241611Y-3243834D01*
X3194875Y-3243834D01*
X3306889Y-3212592D02*
G01*
X3306889Y-3207512D01*
X3312223Y-3197097D01*
X3317303Y-3191763D01*
X3327717Y-3186684D01*
X3348545Y-3186684D01*
X3358959Y-3191763D01*
X3364039Y-3197097D01*
X3369373Y-3207512D01*
X3369373Y-3217926D01*
X3364039Y-3228339D01*
X3353625Y-3243834D01*
X3301809Y-3295650D01*
X3374453Y-3295650D01*
G36*
X2550160Y-314960D02*
G01*
X2550160Y-396240D01*
X2608580Y-355600D01*
G37*
G36*
X2740964Y-416306D02*
G01*
X2740964Y-453288D01*
X2771444Y-453288D01*
X2771444Y-416306D01*
G37*
G36*
X2740964Y-257911D02*
G01*
X2740964Y-294894D01*
X2771444Y-294894D01*
X2771444Y-257911D01*
G37*
G36*
X4625340Y-3337560D02*
G01*
X4566920Y-3378200D01*
X4625340Y-3418840D01*
G37*
G36*
X4404055Y-3280511D02*
G01*
X4404055Y-3317494D01*
X4434535Y-3317494D01*
X4434535Y-3280511D01*
G37*
G36*
X4404055Y-3438906D02*
G01*
X4404055Y-3475888D01*
X4434535Y-3475888D01*
X4434535Y-3438906D01*
G37*
G36*
X1272540Y-3324860D02*
G01*
X1214120Y-3365500D01*
X1272540Y-3406140D01*
G37*
G36*
X1051255Y-3267811D02*
G01*
X1051255Y-3304794D01*
X1081735Y-3304794D01*
X1081735Y-3267811D01*
G37*
G36*
X1051255Y-3426206D02*
G01*
X1051255Y-3463188D01*
X1081735Y-3463188D01*
X1081735Y-3426206D01*
G37*
G36*
X1323340Y-695960D02*
G01*
X1264920Y-736600D01*
X1323340Y-777240D01*
G37*
G36*
X1102055Y-638911D02*
G01*
X1102055Y-675894D01*
X1132535Y-675894D01*
X1132535Y-638911D01*
G37*
G36*
X1102055Y-797306D02*
G01*
X1102055Y-834288D01*
X1132535Y-834288D01*
X1132535Y-797306D01*
G37*
G36*
X4790440Y-695960D02*
G01*
X4732020Y-736600D01*
X4790440Y-777240D01*
G37*
G36*
X4569155Y-638911D02*
G01*
X4569155Y-675894D01*
X4599635Y-675894D01*
X4599635Y-638911D01*
G37*
G36*
X4569155Y-797306D02*
G01*
X4569155Y-834288D01*
X4599635Y-834288D01*
X4599635Y-797306D01*
G37*
D10*
X190500Y-1828800D02*
G01*
X441960Y-1828800D01*
X441960Y-2336800D01*
X190500Y-2336800D01*
X190500Y-1828800D01*
X2806700Y-1600200D02*
G01*
X2806700Y-1346200D01*
X3822700Y-1346200D01*
X3822700Y-1600200D01*
X3632200Y-1600200D01*
D12*
X2806700Y-1600200D02*
G01*
X3632200Y-1600200D01*
D13*
X2456179Y-284985D02*
G01*
X2456179Y-270598D01*
X2456179Y-440601D02*
G01*
X2456179Y-426214D01*
X2725420Y-270598D02*
G01*
X2754596Y-270598D01*
X2754698Y-270700D01*
X2725420Y-440601D02*
G01*
X2755097Y-440601D01*
X2755198Y-440499D01*
X2725420Y-440601D02*
G01*
X2456179Y-440601D01*
X2550159Y-396239D02*
G01*
X2550159Y-314960D01*
X2550159Y-355625D02*
G01*
X2518790Y-355625D01*
X2618800Y-355600D02*
G01*
X2651800Y-355600D01*
X2616200Y-406400D02*
G01*
X2616200Y-304800D01*
X2608579Y-355600D02*
G01*
X2550159Y-396239D01*
X2550159Y-314960D02*
G01*
X2608579Y-355600D01*
X2456179Y-270598D02*
G01*
X2725420Y-270598D01*
D10*
X4864100Y-3594100D02*
G01*
X4864100Y-3845560D01*
X4356100Y-3845560D01*
X4356100Y-3594100D01*
X4864100Y-3594100D01*
X1498600Y-3606800D02*
G01*
X1498600Y-3858260D01*
X990600Y-3858260D01*
X990600Y-3606800D01*
X1498600Y-3606800D01*
X1460500Y-165100D02*
G01*
X1460500Y-416560D01*
X952500Y-416560D01*
X952500Y-165100D01*
X1460500Y-165100D01*
X4991100Y-165100D02*
G01*
X4991100Y-416560D01*
X4483100Y-416560D01*
X4483100Y-165100D01*
X4991100Y-165100D01*
D13*
X4109986Y-644613D02*
G01*
X4109986Y-669615D01*
X4109986Y-473384D02*
G01*
X4109986Y-498386D01*
X3509987Y-644613D02*
G01*
X3509987Y-669612D01*
X3509987Y-473384D02*
G01*
X3509987Y-498386D01*
X3509987Y-381502D02*
G01*
X4109986Y-381502D01*
X4109986Y-761497D02*
G01*
X3509987Y-761497D01*
X4109986Y-381502D02*
G01*
X4109986Y-473384D01*
X4109986Y-669615D02*
G01*
X4109986Y-761497D01*
X3509987Y-381502D02*
G01*
X3509987Y-473384D01*
X3509987Y-669612D02*
G01*
X3509987Y-761497D01*
X3664089Y-475106D02*
G01*
X3948899Y-475106D01*
X3948899Y-672896D01*
X3664089Y-672896D01*
X3664089Y-475106D01*
X3723195Y-530301D02*
G01*
X3892207Y-530301D01*
X3892207Y-608990D01*
X3723195Y-608990D01*
X3723195Y-530301D01*
D11*
X5385020Y-3819121D02*
G01*
X5385020Y-3673878D01*
X5281858Y-3673878D01*
X5079779Y-3819121D02*
G01*
X5079779Y-3673878D01*
X5182941Y-3673878D01*
X5277939Y-3819121D02*
G01*
X5186860Y-3819121D01*
X2057620Y-3819121D02*
G01*
X2057620Y-3673878D01*
X1954458Y-3673878D01*
X1752379Y-3819121D02*
G01*
X1752379Y-3673878D01*
X1855541Y-3673878D01*
X1950539Y-3819121D02*
G01*
X1859460Y-3819121D01*
X2019520Y-352021D02*
G01*
X2019520Y-206778D01*
X1916358Y-206778D01*
X1714279Y-352021D02*
G01*
X1714279Y-206778D01*
X1817441Y-206778D01*
X1912439Y-352021D02*
G01*
X1821360Y-352021D01*
X5473920Y-390121D02*
G01*
X5473920Y-244878D01*
X5370758Y-244878D01*
X5168679Y-390121D02*
G01*
X5168679Y-244878D01*
X5271841Y-244878D01*
X5366839Y-390121D02*
G01*
X5275760Y-390121D01*
X5124579Y-3270290D02*
G01*
X4988587Y-3270290D01*
X4988587Y-3486109D01*
X5124579Y-3486109D01*
X5314820Y-3270290D02*
G01*
X5450812Y-3270290D01*
X5450812Y-3486109D01*
X5314820Y-3486109D01*
X1797179Y-3270290D02*
G01*
X1661187Y-3270290D01*
X1661187Y-3486109D01*
X1797179Y-3486109D01*
X1987420Y-3270290D02*
G01*
X2123412Y-3270290D01*
X2123412Y-3486109D01*
X1987420Y-3486109D01*
X1797179Y-641390D02*
G01*
X1661187Y-641390D01*
X1661187Y-857209D01*
X1797179Y-857209D01*
X1987420Y-641390D02*
G01*
X2123412Y-641390D01*
X2123412Y-857209D01*
X1987420Y-857209D01*
X5238879Y-654090D02*
G01*
X5102887Y-654090D01*
X5102887Y-869909D01*
X5238879Y-869909D01*
X5429120Y-654090D02*
G01*
X5565112Y-654090D01*
X5565112Y-869909D01*
X5429120Y-869909D01*
X2825620Y-908009D02*
G01*
X2961612Y-908009D01*
X2961612Y-692190D01*
X2825620Y-692190D01*
X2635379Y-908009D02*
G01*
X2499387Y-908009D01*
X2499387Y-692190D01*
X2635379Y-692190D01*
X3254009Y-663580D02*
G01*
X3254009Y-535086D01*
X3070590Y-535086D01*
X3070590Y-663580D01*
X3254009Y-758819D02*
G01*
X3254009Y-887313D01*
X3070590Y-887313D01*
X3070590Y-758819D01*
D13*
X866300Y-1020099D02*
G01*
X5966299Y-1020099D01*
X5966299Y-1020099D02*
G01*
X5966299Y-3120100D01*
X799980Y-1670100D02*
G01*
X799980Y-2470099D01*
X1308100Y-1670100D02*
G01*
X1308100Y-2470099D01*
X736300Y-1670100D02*
G01*
X736300Y-2451100D01*
X736300Y-1670100D02*
G01*
X1308100Y-1670100D01*
X736300Y-2470099D02*
G01*
X1308100Y-2470099D01*
X866300Y-3120100D02*
G01*
X866300Y-1020099D01*
X5966299Y-3120100D02*
G01*
X866300Y-3120100D01*
X4719320Y-3448814D02*
G01*
X4719320Y-3463201D01*
X4719320Y-3293198D02*
G01*
X4719320Y-3307585D01*
X4450079Y-3463201D02*
G01*
X4420903Y-3463201D01*
X4420801Y-3463099D01*
X4450079Y-3293198D02*
G01*
X4420402Y-3293198D01*
X4420301Y-3293300D01*
X4450079Y-3293198D02*
G01*
X4719320Y-3293198D01*
X4625340Y-3337560D02*
G01*
X4625340Y-3418839D01*
X4625340Y-3378174D02*
G01*
X4656709Y-3378174D01*
X4556699Y-3378200D02*
G01*
X4523699Y-3378200D01*
X4559300Y-3327400D02*
G01*
X4559300Y-3429000D01*
X4566920Y-3378200D02*
G01*
X4625340Y-3337560D01*
X4625340Y-3418839D02*
G01*
X4566920Y-3378200D01*
X4719320Y-3463201D02*
G01*
X4450079Y-3463201D01*
X1366520Y-3436114D02*
G01*
X1366520Y-3450501D01*
X1366520Y-3280498D02*
G01*
X1366520Y-3294885D01*
X1097279Y-3450501D02*
G01*
X1068103Y-3450501D01*
X1068001Y-3450399D01*
X1097279Y-3280498D02*
G01*
X1067602Y-3280498D01*
X1067501Y-3280600D01*
X1097279Y-3280498D02*
G01*
X1366520Y-3280498D01*
X1272539Y-3324860D02*
G01*
X1272539Y-3406139D01*
X1272539Y-3365474D02*
G01*
X1303909Y-3365474D01*
X1203899Y-3365500D02*
G01*
X1170899Y-3365500D01*
X1206500Y-3314700D02*
G01*
X1206500Y-3416300D01*
X1214120Y-3365500D02*
G01*
X1272539Y-3324860D01*
X1272539Y-3406139D02*
G01*
X1214120Y-3365500D01*
X1366520Y-3450501D02*
G01*
X1097279Y-3450501D01*
X1417320Y-807214D02*
G01*
X1417320Y-821601D01*
X1417320Y-651598D02*
G01*
X1417320Y-665985D01*
X1148079Y-821601D02*
G01*
X1118903Y-821601D01*
X1118801Y-821499D01*
X1148079Y-651598D02*
G01*
X1118402Y-651598D01*
X1118301Y-651700D01*
X1148079Y-651598D02*
G01*
X1417320Y-651598D01*
X1323339Y-695960D02*
G01*
X1323339Y-777239D01*
X1323339Y-736574D02*
G01*
X1354709Y-736574D01*
X1254699Y-736600D02*
G01*
X1221699Y-736600D01*
X1257300Y-685800D02*
G01*
X1257300Y-787400D01*
X1264920Y-736600D02*
G01*
X1323339Y-695960D01*
X1323339Y-777239D02*
G01*
X1264920Y-736600D01*
X1417320Y-821601D02*
G01*
X1148079Y-821601D01*
X4884420Y-807214D02*
G01*
X4884420Y-821601D01*
X4884420Y-651598D02*
G01*
X4884420Y-665985D01*
X4615179Y-821601D02*
G01*
X4586003Y-821601D01*
X4585901Y-821499D01*
X4615179Y-651598D02*
G01*
X4585502Y-651598D01*
X4585401Y-651700D01*
X4615179Y-651598D02*
G01*
X4884420Y-651598D01*
X4790440Y-695960D02*
G01*
X4790440Y-777239D01*
X4790440Y-736574D02*
G01*
X4821809Y-736574D01*
X4721799Y-736600D02*
G01*
X4688799Y-736600D01*
X4724400Y-685800D02*
G01*
X4724400Y-787400D01*
X4732020Y-736600D02*
G01*
X4790440Y-695960D01*
X4790440Y-777239D02*
G01*
X4732020Y-736600D01*
X4884420Y-821601D02*
G01*
X4615179Y-821601D01*
D14*
X370204Y-2804706D02*
G01*
X430199Y-2804703D01*
X430199Y-2997200D01*
X150200Y-3189696D02*
G01*
X150200Y-3109694D01*
X150200Y-3109927D01*
X124200Y-3109927D01*
X249196Y-3189691D02*
G01*
X249196Y-3189696D01*
X150200Y-3189696D01*
X249196Y-3189691D02*
G01*
X249196Y-3217202D01*
X284807Y-3217202D01*
X370202Y-3189691D02*
G01*
X329638Y-3189691D01*
X329638Y-3217202D01*
X370202Y-3189691D02*
G01*
X430199Y-3189696D01*
X430199Y-2997202D01*
X329641Y-2777200D02*
G01*
X454200Y-2777200D01*
X454200Y-2777197D01*
X454200Y-2777197D02*
G01*
X454200Y-3217199D01*
X124200Y-3217199D01*
X124200Y-2777200D01*
X329641Y-2777200D01*
X329641Y-2777197D01*
X370204Y-2804706D02*
G01*
X329641Y-2804706D01*
X329641Y-2777197D01*
X249199Y-2804706D02*
G01*
X249199Y-2804703D01*
X150200Y-2804703D01*
X249199Y-2804706D02*
G01*
X249199Y-2777197D01*
X284810Y-2777197D01*
X150200Y-2804703D02*
G01*
X150200Y-2884703D01*
X150200Y-2884469D01*
X124200Y-2884469D01*
X2919006Y-3414395D02*
G01*
X2919003Y-3354400D01*
X3111500Y-3354400D01*
X3303996Y-3634399D02*
G01*
X3223994Y-3634399D01*
X3224227Y-3634399D01*
X3224227Y-3660399D01*
X3303991Y-3535403D02*
G01*
X3303996Y-3535403D01*
X3303996Y-3634399D01*
X3303991Y-3535403D02*
G01*
X3331502Y-3535403D01*
X3331502Y-3499792D01*
X3303991Y-3414397D02*
G01*
X3303991Y-3454961D01*
X3331502Y-3454961D01*
X3303991Y-3414397D02*
G01*
X3303996Y-3354400D01*
X3111502Y-3354400D01*
X2891500Y-3454958D02*
G01*
X2891500Y-3330399D01*
X2891497Y-3330399D01*
X2891497Y-3330399D02*
G01*
X3331499Y-3330399D01*
X3331499Y-3660399D01*
X2891500Y-3660399D01*
X2891500Y-3454958D01*
X2891497Y-3454958D01*
X2919006Y-3414395D02*
G01*
X2919006Y-3454958D01*
X2891497Y-3454958D01*
X2919006Y-3535400D02*
G01*
X2919003Y-3535400D01*
X2919003Y-3634399D01*
X2919006Y-3535400D02*
G01*
X2891497Y-3535400D01*
X2891497Y-3499789D01*
X2919003Y-3634399D02*
G01*
X2999003Y-3634399D01*
X2998769Y-3634399D01*
X2998769Y-3660399D01*
D13*
G75*
G01
X1384300Y-2717800D02*
G03X1384300Y-2717800I-76200J0D01*
M02*
