G04 Layer: BottomSolderMaskLayer*
G04 EasyEDA v6.5.34, 2023-09-18 22:27:19*
G04 bc2ed7582af3402095bcfb090b7e3d1d,4f913e99b9844981aeab8c69eabd27f9,10*
G04 Gerber Generator version 0.2*
G04 Scale: 100 percent, Rotated: No, Reflected: No *
G04 Dimensions in millimeters *
G04 leading zeros omitted , absolute positions ,4 integer and 5 decimal *
%FSLAX45Y45*%
%MOMM*%

%AMMACRO1*1,1,$1,$2,$3*1,1,$1,$4,$5*1,1,$1,0-$2,0-$3*1,1,$1,0-$4,0-$5*20,1,$1,$2,$3,$4,$5,0*20,1,$1,$4,$5,0-$2,0-$3,0*20,1,$1,0-$2,0-$3,0-$4,0-$5,0*20,1,$1,0-$4,0-$5,$2,$3,0*4,1,4,$2,$3,$4,$5,0-$2,0-$3,0-$4,0-$5,$2,$3,0*%
%ADD10MACRO1,0.1016X-0.7874X0.7874X0.7874X0.7874*%
%ADD11C,1.6764*%
%ADD12MACRO1,0.1016X0.7874X-0.7874X-0.7874X-0.7874*%
%ADD13MACRO1,0.1016X0.7874X0.7874X0.7874X-0.7874*%
%ADD14C,1.7272*%
%ADD15C,1.6256*%
%ADD16MACRO1,0.1016X-0.762X0.762X0.762X0.762*%
%ADD17MACRO1,0.2032X-0.762X0.762X0.762X0.762*%
%ADD18C,1.1516*%
%ADD19MACRO1,0.1016X0.525X0.525X0.525X-0.525*%
%ADD20MACRO1,0.1016X-0.525X0.525X0.525X0.525*%

%LPD*%
D10*
G01*
X317500Y-2209800D03*
D11*
G01*
X317500Y-1955800D03*
G01*
X3695700Y-1473200D03*
D12*
G01*
X3441700Y-1473200D03*
D11*
G01*
X3187700Y-1473200D03*
G01*
X2933700Y-1473200D03*
G01*
X4483100Y-3721100D03*
D13*
G01*
X4737100Y-3721100D03*
D11*
G01*
X1117600Y-3733800D03*
D13*
G01*
X1371600Y-3733800D03*
D11*
G01*
X1079500Y-292100D03*
D13*
G01*
X1333500Y-292100D03*
D11*
G01*
X4610100Y-292100D03*
D13*
G01*
X4864100Y-292100D03*
D14*
G01*
X5829300Y-1181100D03*
D15*
G01*
X5575300Y-1181100D03*
D16*
G01*
X5321300Y-1181100D03*
D14*
G01*
X5067300Y-1181100D03*
D15*
G01*
X4813300Y-1181100D03*
G01*
X4559300Y-1181100D03*
G01*
X4305300Y-1181100D03*
D16*
G01*
X4051300Y-1181100D03*
D15*
G01*
X3797300Y-1181100D03*
D14*
G01*
X3543300Y-1181100D03*
D15*
G01*
X3289300Y-1181100D03*
D14*
G01*
X3035300Y-1181100D03*
D16*
G01*
X2781300Y-1181100D03*
D15*
G01*
X2527300Y-1181100D03*
G01*
X2273300Y-1181100D03*
G01*
X2019300Y-1181100D03*
D14*
G01*
X1765300Y-1181100D03*
D16*
G01*
X1511300Y-1181100D03*
D15*
G01*
X1257300Y-1181100D03*
G01*
X1003300Y-1181100D03*
D14*
G01*
X5829300Y-2959100D03*
G01*
X5575300Y-2959100D03*
D17*
G01*
X5321300Y-2959100D03*
D14*
G01*
X5067300Y-2959100D03*
G01*
X4813300Y-2959100D03*
G01*
X4559300Y-2959100D03*
G01*
X4305300Y-2959100D03*
D17*
G01*
X4051300Y-2959100D03*
D14*
G01*
X3797300Y-2959100D03*
G01*
X3543300Y-2959100D03*
G01*
X3289300Y-2959100D03*
G01*
X3035300Y-2959100D03*
D17*
G01*
X2781300Y-2959100D03*
D14*
G01*
X2527300Y-2959100D03*
G01*
X2273300Y-2959100D03*
G01*
X2019300Y-2959100D03*
G01*
X1765300Y-2959100D03*
D17*
G01*
X1511300Y-2959100D03*
D14*
G01*
X1257300Y-2959100D03*
G01*
X1003300Y-2959100D03*
G01*
X3986301Y-1757705D03*
G01*
X3986301Y-1503705D03*
D17*
G01*
X3986293Y-2011700D03*
D18*
G01*
X330200Y-3059709D03*
D19*
G01*
X330201Y-2934717D03*
D18*
G01*
X3173996Y-3454400D03*
D20*
G01*
X3049002Y-3454401D03*
M02*
