G04 Layer: TopLayer*
G04 EasyEDA v6.5.34, 2023-09-18 22:27:19*
G04 bc2ed7582af3402095bcfb090b7e3d1d,4f913e99b9844981aeab8c69eabd27f9,10*
G04 Gerber Generator version 0.2*
G04 Scale: 100 percent, Rotated: No, Reflected: No *
G04 Dimensions in millimeters *
G04 leading zeros omitted , absolute positions ,4 integer and 5 decimal *
%FSLAX45Y45*%
%MOMM*%

%AMMACRO1*21,1,$1,$2,0,0,$3*%
%ADD10C,0.8000*%
%ADD11C,0.2540*%
%ADD12R,1.2000X0.9500*%
%ADD13R,1.7500X1.0000*%
%ADD14R,0.7000X1.2500*%
%ADD15MACRO1,1.701X1.2075X-90.0000*%
%ADD16MACRO1,1.701X1.2075X90.0000*%
%ADD17MACRO1,1.377X1.1325X0.0000*%
%ADD18R,1.3770X1.1325*%
%ADD19R,1.5748X1.5748*%
%ADD20C,1.5748*%
%ADD21C,1.5240*%
%ADD22R,1.5240X1.5240*%
%ADD23C,1.0500*%
%ADD24R,1.0500X1.0500*%
%ADD25C,0.6200*%
%ADD26C,0.0101*%

%LPD*%
D10*
X2781300Y-2959100D02*
G01*
X2781300Y-3186696D01*
X3049003Y-3454400D01*
X3035300Y-1943100D02*
G01*
X2781300Y-2197100D01*
X2781300Y-2197100D02*
G01*
X2781300Y-2197100D01*
X2781300Y-2465199D01*
X2781300Y-2465199D02*
G01*
X2781300Y-2959100D01*
X3441700Y-1473200D02*
G01*
X3441700Y-1536700D01*
X3035300Y-1943100D01*
X330200Y-3059684D02*
G01*
X470915Y-3059684D01*
X659892Y-2870707D01*
X736600Y-2794000D01*
X736600Y-2806700D01*
X330200Y-2934703D02*
G01*
X317500Y-2922003D01*
X317500Y-2209800D01*
X2220615Y-558800D02*
G01*
X2420797Y-358617D01*
X2420797Y-355600D01*
X3162300Y-611200D02*
G01*
X2906699Y-355600D01*
X2760802Y-355600D01*
X3289300Y-1181100D02*
G01*
X3162300Y-1054100D01*
X3162300Y-811199D01*
X2878378Y-800100D02*
G01*
X2889478Y-811199D01*
X3162300Y-811199D01*
X4197489Y-609600D02*
G01*
X4197489Y-1034910D01*
X4051300Y-1181100D01*
X3422510Y-609600D02*
G01*
X3422510Y-1060310D01*
X3543300Y-1181100D01*
X2781300Y-1181100D02*
G01*
X2582621Y-982421D01*
X2582621Y-800100D01*
X2040178Y-749300D02*
G01*
X2090978Y-800100D01*
X2582621Y-800100D01*
X1511300Y-1181100D02*
G01*
X1752600Y-939800D01*
X1930400Y-939800D01*
X2040178Y-830021D01*
X2040178Y-749300D01*
X1961895Y-379399D02*
G01*
X2040178Y-457682D01*
X2040178Y-749300D01*
X317500Y-2209800D02*
G01*
X546100Y-1981200D01*
X1917700Y-1981200D01*
X2133600Y-2197100D01*
X2133600Y-2463800D02*
G01*
X1879600Y-2209800D01*
X317500Y-2209800D01*
X1511300Y-1562100D02*
G01*
X1282700Y-1790700D01*
X215900Y-1790700D01*
X114300Y-1892300D01*
X114300Y-2082800D01*
X241300Y-2209800D01*
X317500Y-2209800D01*
X1333500Y-292100D02*
G01*
X1446199Y-179400D01*
X1866900Y-179400D01*
X1112697Y-736600D02*
G01*
X1112697Y-1036497D01*
X1257300Y-1181100D01*
X1079500Y-292100D02*
G01*
X1079500Y-736600D01*
X5232400Y-3633723D02*
G01*
X4824475Y-3633723D01*
X4737100Y-3721100D01*
D11*
X1401902Y-3365500D02*
G01*
X1401902Y-3103702D01*
X1257300Y-2959100D01*
D10*
X1061897Y-3365500D02*
G01*
X1117600Y-3421202D01*
X1117600Y-3733800D01*
X1511300Y-2959100D02*
G01*
X1511300Y-3035300D01*
X1651000Y-3175000D01*
X1836928Y-3175000D01*
X2040127Y-3378200D01*
X2040178Y-3378200D02*
G01*
X2040178Y-3806317D01*
X1999995Y-3846499D01*
X1905000Y-3646500D02*
G01*
X1458899Y-3646500D01*
X1371600Y-3733800D01*
X4483100Y-3721100D02*
G01*
X4414697Y-3652697D01*
X4414697Y-3378200D01*
X5367578Y-3378200D02*
G01*
X5367578Y-3526078D01*
X5435600Y-3594100D01*
X5435600Y-3746500D01*
X5348300Y-3833799D01*
X5327395Y-3833799D01*
X5321300Y-2959100D02*
G01*
X5367578Y-3005378D01*
X5367578Y-3378200D01*
X5321300Y-217500D02*
G01*
X5016500Y-217500D01*
X4941900Y-292100D01*
X4864100Y-292100D01*
X5481878Y-762000D02*
G01*
X5416295Y-696417D01*
X5416295Y-417499D01*
X5321300Y-1181100D02*
G01*
X5481878Y-1020521D01*
X5481878Y-762000D01*
D11*
X1744421Y-749300D02*
G01*
X1739900Y-749300D01*
X1384300Y-1104900D01*
X1384300Y-1333500D01*
X1447800Y-1397000D01*
X2311400Y-1397000D01*
X2527300Y-1181100D01*
D10*
X4579797Y-736600D02*
G01*
X4579797Y-322402D01*
X4610100Y-292100D01*
D11*
X2040178Y-3378200D02*
G01*
X1987295Y-3431082D01*
X5016500Y-3543300D02*
G01*
X5071826Y-3487973D01*
X5071826Y-3378200D01*
X5137404Y-3833799D02*
G01*
X5091099Y-3833799D01*
X5016500Y-3759200D01*
X1651000Y-3543300D02*
G01*
X1744421Y-3449878D01*
X1744421Y-3378200D01*
X1810004Y-3846499D02*
G01*
X1725599Y-3846499D01*
X1651000Y-3771900D01*
X1401902Y-3365500D02*
G01*
X1414602Y-3378200D01*
X1744421Y-3378200D01*
X2527300Y-2959100D02*
G01*
X2527300Y-2133600D01*
X3187700Y-1473200D01*
X2273300Y-2959100D02*
G01*
X2273300Y-2133600D01*
X2933700Y-1473200D01*
X4754702Y-3378200D02*
G01*
X5071821Y-3378200D01*
X5071821Y-3378200D02*
G01*
X5071821Y-2963621D01*
X5067300Y-2959100D01*
X1452702Y-736600D02*
G01*
X1465402Y-749300D01*
X1744421Y-749300D01*
X1771904Y-379399D02*
G01*
X1744421Y-406882D01*
X1744421Y-749300D01*
X4919802Y-736600D02*
G01*
X4945202Y-762000D01*
X5186121Y-762000D01*
X5226304Y-417499D02*
G01*
X5186121Y-457682D01*
X5186121Y-762000D01*
X5186121Y-762000D02*
G01*
X5186121Y-1062278D01*
X5067300Y-1181100D01*
D10*
X1511300Y-2959100D02*
G01*
X1511300Y-2578100D01*
X1333500Y-2400300D01*
X393700Y-2400300D01*
X317500Y-2324100D01*
X317500Y-2209800D01*
D12*
G01*
X2420797Y-355600D03*
G01*
X2760802Y-355600D03*
D13*
G01*
X3422497Y-571500D03*
G01*
X4197502Y-571500D03*
D14*
G01*
X5137404Y-3846499D03*
G01*
X5327395Y-3846499D03*
G01*
X5232400Y-3646500D03*
G01*
X1810004Y-3846499D03*
G01*
X1999995Y-3846499D03*
G01*
X1905000Y-3646500D03*
G01*
X1771904Y-379399D03*
G01*
X1961895Y-379399D03*
G01*
X1866900Y-179400D03*
G01*
X5226304Y-417499D03*
G01*
X5416295Y-417499D03*
G01*
X5321300Y-217500D03*
D15*
G01*
X5071823Y-3378200D03*
G01*
X5367576Y-3378200D03*
G01*
X1744423Y-3378200D03*
G01*
X2040176Y-3378200D03*
G01*
X1744423Y-749300D03*
G01*
X2040176Y-749300D03*
G01*
X5186123Y-762000D03*
G01*
X5481876Y-762000D03*
D16*
G01*
X2878376Y-800100D03*
G01*
X2582623Y-800100D03*
D17*
G01*
X3162300Y-611195D03*
D18*
G01*
X3162300Y-811199D03*
D12*
G01*
X4754702Y-3378200D03*
G01*
X4414697Y-3378200D03*
G01*
X1401902Y-3365500D03*
G01*
X1061897Y-3365500D03*
G01*
X1452702Y-736600D03*
G01*
X1112697Y-736600D03*
G01*
X4919802Y-736600D03*
G01*
X4579797Y-736600D03*
D19*
G01*
X317500Y-2209800D03*
D20*
G01*
X317500Y-1955800D03*
G01*
X3695700Y-1473200D03*
D19*
G01*
X3441700Y-1473200D03*
D20*
G01*
X3187700Y-1473200D03*
G01*
X2933700Y-1473200D03*
G01*
X4483100Y-3721100D03*
D19*
G01*
X4737100Y-3721100D03*
D20*
G01*
X1117600Y-3733800D03*
D19*
G01*
X1371600Y-3733800D03*
D20*
G01*
X1079500Y-292100D03*
D19*
G01*
X1333500Y-292100D03*
D20*
G01*
X4610100Y-292100D03*
D19*
G01*
X4864100Y-292100D03*
D21*
G01*
X5829300Y-1181100D03*
G01*
X5575300Y-1181100D03*
D22*
G01*
X5321300Y-1181100D03*
D21*
G01*
X5067300Y-1181100D03*
G01*
X4813300Y-1181100D03*
G01*
X4559300Y-1181100D03*
G01*
X4305300Y-1181100D03*
D22*
G01*
X4051300Y-1181100D03*
D21*
G01*
X3797300Y-1181100D03*
G01*
X3543300Y-1181100D03*
G01*
X3289300Y-1181100D03*
G01*
X3035300Y-1181100D03*
D22*
G01*
X2781300Y-1181100D03*
D21*
G01*
X2527300Y-1181100D03*
G01*
X2273300Y-1181100D03*
G01*
X2019300Y-1181100D03*
G01*
X1765300Y-1181100D03*
D22*
G01*
X1511300Y-1181100D03*
D21*
G01*
X1257300Y-1181100D03*
G01*
X1003300Y-1181100D03*
G01*
X5829300Y-2959100D03*
G01*
X5575300Y-2959100D03*
D22*
G01*
X5321300Y-2959100D03*
D21*
G01*
X5067300Y-2959100D03*
G01*
X4813300Y-2959100D03*
G01*
X4559300Y-2959100D03*
G01*
X4305300Y-2959100D03*
D22*
G01*
X4051300Y-2959100D03*
D21*
G01*
X3797300Y-2959100D03*
G01*
X3543300Y-2959100D03*
G01*
X3289300Y-2959100D03*
G01*
X3035300Y-2959100D03*
D22*
G01*
X2781300Y-2959100D03*
D21*
G01*
X2527300Y-2959100D03*
G01*
X2273300Y-2959100D03*
G01*
X2019300Y-2959100D03*
G01*
X1765300Y-2959100D03*
D22*
G01*
X1511300Y-2959100D03*
D21*
G01*
X1257300Y-2959100D03*
G01*
X1003300Y-2959100D03*
G01*
X3986301Y-1757705D03*
G01*
X3986301Y-1503705D03*
D22*
G01*
X3986301Y-2011705D03*
D23*
G01*
X330200Y-3059709D03*
D24*
G01*
X330200Y-2934715D03*
D23*
G01*
X3173996Y-3454400D03*
D24*
G01*
X3049003Y-3454400D03*
D25*
G01*
X1651000Y-3771900D03*
G01*
X1651000Y-3543300D03*
G01*
X5016500Y-3759200D03*
G01*
X5016500Y-3543300D03*
G01*
X2220620Y-558800D03*
G01*
X2133600Y-2197100D03*
G01*
X1511300Y-1562100D03*
G01*
X2133600Y-2463800D03*
G01*
X736600Y-2806700D03*
G01*
X2781300Y-2197100D03*
G01*
X2781300Y-2465199D03*
M02*
