G04 Layer: TopPasteMaskLayer*
G04 EasyEDA v6.5.34, 2023-09-18 22:27:19*
G04 bc2ed7582af3402095bcfb090b7e3d1d,4f913e99b9844981aeab8c69eabd27f9,10*
G04 Gerber Generator version 0.2*
G04 Scale: 100 percent, Rotated: No, Reflected: No *
G04 Dimensions in millimeters *
G04 leading zeros omitted , absolute positions ,4 integer and 5 decimal *
%FSLAX45Y45*%
%MOMM*%

%ADD10R,1.2000X0.9500*%
%ADD11R,1.7500X1.0000*%
%ADD12R,0.7000X1.2500*%

%LPD*%
G36*
X5021427Y-3293160D02*
G01*
X5011470Y-3303168D01*
X5011470Y-3453231D01*
X5021427Y-3463239D01*
X5122214Y-3463239D01*
X5132222Y-3453231D01*
X5132222Y-3417112D01*
X5122214Y-3407105D01*
X5101132Y-3407105D01*
X5091125Y-3397097D01*
X5091125Y-3359302D01*
X5101132Y-3349294D01*
X5122214Y-3349294D01*
X5132222Y-3339287D01*
X5132222Y-3303168D01*
X5122214Y-3293160D01*
G37*
G36*
X5317185Y-3293160D02*
G01*
X5307177Y-3303168D01*
X5307177Y-3339287D01*
X5317185Y-3349294D01*
X5338267Y-3349294D01*
X5348274Y-3359302D01*
X5348274Y-3397097D01*
X5338267Y-3407105D01*
X5317185Y-3407105D01*
X5307177Y-3417112D01*
X5307177Y-3453231D01*
X5317185Y-3463239D01*
X5417972Y-3463239D01*
X5427929Y-3453231D01*
X5427929Y-3303168D01*
X5417972Y-3293160D01*
G37*
G36*
X1694027Y-3293160D02*
G01*
X1684070Y-3303168D01*
X1684070Y-3453231D01*
X1694027Y-3463239D01*
X1794814Y-3463239D01*
X1804822Y-3453231D01*
X1804822Y-3417112D01*
X1794814Y-3407105D01*
X1773732Y-3407105D01*
X1763725Y-3397097D01*
X1763725Y-3359302D01*
X1773732Y-3349294D01*
X1794814Y-3349294D01*
X1804822Y-3339287D01*
X1804822Y-3303168D01*
X1794814Y-3293160D01*
G37*
G36*
X1989785Y-3293160D02*
G01*
X1979777Y-3303168D01*
X1979777Y-3339287D01*
X1989785Y-3349294D01*
X2010867Y-3349294D01*
X2020874Y-3359302D01*
X2020874Y-3397097D01*
X2010867Y-3407105D01*
X1989785Y-3407105D01*
X1979777Y-3417112D01*
X1979777Y-3453231D01*
X1989785Y-3463239D01*
X2090572Y-3463239D01*
X2100529Y-3453231D01*
X2100529Y-3303168D01*
X2090572Y-3293160D01*
G37*
G36*
X1694027Y-664260D02*
G01*
X1684070Y-674268D01*
X1684070Y-824331D01*
X1694027Y-834339D01*
X1794814Y-834339D01*
X1804822Y-824331D01*
X1804822Y-788212D01*
X1794814Y-778205D01*
X1773732Y-778205D01*
X1763725Y-768197D01*
X1763725Y-730402D01*
X1773732Y-720394D01*
X1794814Y-720394D01*
X1804822Y-710387D01*
X1804822Y-674268D01*
X1794814Y-664260D01*
G37*
G36*
X1989785Y-664260D02*
G01*
X1979777Y-674268D01*
X1979777Y-710387D01*
X1989785Y-720394D01*
X2010867Y-720394D01*
X2020874Y-730402D01*
X2020874Y-768197D01*
X2010867Y-778205D01*
X1989785Y-778205D01*
X1979777Y-788212D01*
X1979777Y-824331D01*
X1989785Y-834339D01*
X2090572Y-834339D01*
X2100529Y-824331D01*
X2100529Y-674268D01*
X2090572Y-664260D01*
G37*
G36*
X5135727Y-676960D02*
G01*
X5125770Y-686968D01*
X5125770Y-837031D01*
X5135727Y-847039D01*
X5236514Y-847039D01*
X5246522Y-837031D01*
X5246522Y-800912D01*
X5236514Y-790905D01*
X5215432Y-790905D01*
X5205425Y-780897D01*
X5205425Y-743102D01*
X5215432Y-733094D01*
X5236514Y-733094D01*
X5246522Y-723087D01*
X5246522Y-686968D01*
X5236514Y-676960D01*
G37*
G36*
X5431485Y-676960D02*
G01*
X5421477Y-686968D01*
X5421477Y-723087D01*
X5431485Y-733094D01*
X5452567Y-733094D01*
X5462574Y-743102D01*
X5462574Y-780897D01*
X5452567Y-790905D01*
X5431485Y-790905D01*
X5421477Y-800912D01*
X5421477Y-837031D01*
X5431485Y-847039D01*
X5532272Y-847039D01*
X5542229Y-837031D01*
X5542229Y-686968D01*
X5532272Y-676960D01*
G37*
G36*
X2827985Y-715060D02*
G01*
X2817977Y-725068D01*
X2817977Y-761187D01*
X2827985Y-771194D01*
X2849067Y-771194D01*
X2859074Y-781202D01*
X2859074Y-818997D01*
X2849067Y-829005D01*
X2827985Y-829005D01*
X2817977Y-839012D01*
X2817977Y-875131D01*
X2827985Y-885139D01*
X2928772Y-885139D01*
X2938729Y-875131D01*
X2938729Y-725068D01*
X2928772Y-715060D01*
G37*
G36*
X2532227Y-715060D02*
G01*
X2522270Y-725068D01*
X2522270Y-875131D01*
X2532227Y-885139D01*
X2633014Y-885139D01*
X2643022Y-875131D01*
X2643022Y-839012D01*
X2633014Y-829005D01*
X2611932Y-829005D01*
X2601925Y-818997D01*
X2601925Y-781202D01*
X2611932Y-771194D01*
X2633014Y-771194D01*
X2643022Y-761187D01*
X2643022Y-725068D01*
X2633014Y-715060D01*
G37*
G36*
X3139287Y-755700D02*
G01*
X3098292Y-756208D01*
X3093313Y-761187D01*
X3093313Y-876198D01*
X3098292Y-881227D01*
X3226308Y-881227D01*
X3231286Y-876198D01*
X3231286Y-761187D01*
X3226308Y-756208D01*
X3184296Y-756716D01*
X3184296Y-800709D01*
X3139287Y-800709D01*
G37*
G36*
X3098292Y-541223D02*
G01*
X3093313Y-546201D01*
X3093313Y-661212D01*
X3098292Y-666191D01*
X3139287Y-665683D01*
X3139287Y-621690D01*
X3184296Y-621690D01*
X3184296Y-666191D01*
X3226308Y-666191D01*
X3231286Y-661212D01*
X3231286Y-546201D01*
X3226308Y-541223D01*
G37*
D10*
G01*
X2420797Y-355600D03*
G01*
X2760802Y-355600D03*
D11*
G01*
X3422497Y-571500D03*
G01*
X4197502Y-571500D03*
D12*
G01*
X5137404Y-3846499D03*
G01*
X5327395Y-3846499D03*
G01*
X5232400Y-3646500D03*
G01*
X1810004Y-3846499D03*
G01*
X1999995Y-3846499D03*
G01*
X1905000Y-3646500D03*
G01*
X1771904Y-379399D03*
G01*
X1961895Y-379399D03*
G01*
X1866900Y-179400D03*
G01*
X5226304Y-417499D03*
G01*
X5416295Y-417499D03*
G01*
X5321300Y-217500D03*
D10*
G01*
X4754702Y-3378200D03*
G01*
X4414697Y-3378200D03*
G01*
X1401902Y-3365500D03*
G01*
X1061897Y-3365500D03*
G01*
X1452702Y-736600D03*
G01*
X1112697Y-736600D03*
G01*
X4919802Y-736600D03*
G01*
X4579797Y-736600D03*
M02*
